<?xml version="1.0" encoding="UTF-8" standalone="no"?>
<!DOCTYPE svg PUBLIC "-//W3C//DTD SVG 1.1//EN"
 "http://www.w3.org/Graphics/SVG/1.1/DTD/svg11.dtd">
<!-- Generated by graphviz version 2.47.0 (20210316.0004)
 -->
<!-- Title: dependencies Pages: 1 -->
<svg width="851pt" height="284pt"
 viewBox="0.00 0.00 851.00 284.00" xmlns="http://www.w3.org/2000/svg" xmlns:xlink="http://www.w3.org/1999/xlink">
<g id="graph0" class="graph" transform="scale(1 1) rotate(0) translate(4 280)">
<title>dependencies</title>
<polygon fill="white" stroke="transparent" points="-4,4 -4,-280 847,-280 847,4 -4,4"/>
<text text-anchor="start" x="400.51" y="-42.4" font-family="Times-12" font-weight="bold" font-size="14.00">Legend</text>
<polygon fill="#ffffb3" stroke="transparent" points="187.5,-10 187.5,-30 207.5,-30 207.5,-10 187.5,-10"/>
<text text-anchor="start" x="211.13" y="-15.4" font-family="Times-12" font-size="14.00"> &#160;Declarations</text>
<polygon fill="#8dd3c7" stroke="transparent" points="300.5,-10 300.5,-30 320.5,-30 320.5,-10 300.5,-10"/>
<text text-anchor="start" x="324.23" y="-15.4" font-family="Times-12" font-size="14.00"> &#160;Module</text>
<polygon fill="#80b1d3" stroke="transparent" points="386.5,-10 386.5,-30 406.5,-30 406.5,-10 386.5,-10"/>
<text text-anchor="start" x="410.28" y="-15.4" font-family="Times-12" font-size="14.00"> &#160;Bootstrap</text>
<polygon fill="#fdb462" stroke="transparent" points="483.5,-10 483.5,-30 503.5,-30 503.5,-10 483.5,-10"/>
<text text-anchor="start" x="507.17" y="-15.4" font-family="Times-12" font-size="14.00"> &#160;Providers</text>
<polygon fill="#fb8072" stroke="transparent" points="579.5,-10 579.5,-30 599.5,-30 599.5,-10 579.5,-10"/>
<text text-anchor="start" x="603.23" y="-15.4" font-family="Times-12" font-size="14.00"> &#160;Exports</text>
<g id="clust1" class="cluster">
<title>cluster_SharedModule</title>
<polygon fill="none" stroke="black" stroke-dasharray="1,5" points="8,-70 8,-268 835,-268 835,-70 8,-70"/>
</g>
<g id="clust9" class="cluster">
<title>cluster_SharedModule_exports</title>
<polygon fill="none" stroke="black" points="16,-208 16,-260 827,-260 827,-208 16,-208"/>
</g>
<g id="clust2" class="cluster">
<title>cluster_SharedModule_declarations</title>
<polygon fill="none" stroke="black" points="25,-78 25,-130 818,-130 818,-78 25,-78"/>
</g>
<!-- AboutPageComponent -->
<g id="node1" class="node">
<title>AboutPageComponent</title>
<polygon fill="#ffffb3" stroke="black" points="809.54,-122 666.46,-122 666.46,-86 809.54,-86 809.54,-122"/>
<text text-anchor="middle" x="738" y="-99.8" font-family="Times,serif" font-size="14.00">AboutPageComponent</text>
</g>
<!-- SharedModule -->
<g id="node6" class="node">
<title>SharedModule</title>
<polygon fill="#8dd3c7" stroke="black" points="456.42,-187 453.42,-191 432.42,-191 429.42,-187 357.58,-187 357.58,-151 456.42,-151 456.42,-187"/>
<text text-anchor="middle" x="407" y="-164.8" font-family="Times,serif" font-size="14.00">SharedModule</text>
</g>
<!-- AboutPageComponent&#45;&gt;SharedModule -->
<g id="edge1" class="edge">
<title>AboutPageComponent&#45;&gt;SharedModule</title>
<path fill="none" stroke="black" d="M763.67,-122.27C763.67,-140.56 763.67,-166 763.67,-166 763.67,-166 466.22,-166 466.22,-166"/>
<polygon fill="black" stroke="black" points="466.22,-162.5 456.22,-166 466.22,-169.5 466.22,-162.5"/>
</g>
<!-- ContactPageComponent -->
<g id="node2" class="node">
<title>ContactPageComponent</title>
<polygon fill="#ffffb3" stroke="black" points="648.09,-122 495.91,-122 495.91,-86 648.09,-86 648.09,-122"/>
<text text-anchor="middle" x="572" y="-99.8" font-family="Times,serif" font-size="14.00">ContactPageComponent</text>
</g>
<!-- ContactPageComponent&#45;&gt;SharedModule -->
<g id="edge2" class="edge">
<title>ContactPageComponent&#45;&gt;SharedModule</title>
<path fill="none" stroke="black" d="M598.1,-122.01C598.1,-138.05 598.1,-159 598.1,-159 598.1,-159 466.21,-159 466.21,-159"/>
<polygon fill="black" stroke="black" points="466.21,-155.5 456.21,-159 466.21,-162.5 466.21,-155.5"/>
</g>
<!-- HomePageComponent -->
<g id="node3" class="node">
<title>HomePageComponent</title>
<polygon fill="#ffffb3" stroke="black" points="478.26,-122 335.74,-122 335.74,-86 478.26,-86 478.26,-122"/>
<text text-anchor="middle" x="407" y="-99.8" font-family="Times,serif" font-size="14.00">HomePageComponent</text>
</g>
<!-- HomePageComponent&#45;&gt;SharedModule -->
<g id="edge3" class="edge">
<title>HomePageComponent&#45;&gt;SharedModule</title>
<path fill="none" stroke="black" d="M407,-122.11C407,-122.11 407,-140.99 407,-140.99"/>
<polygon fill="black" stroke="black" points="403.5,-140.99 407,-150.99 410.5,-140.99 403.5,-140.99"/>
</g>
<!-- SearchBoxComponent -->
<g id="node4" class="node">
<title>SearchBoxComponent</title>
<polygon fill="#ffffb3" stroke="black" points="317.26,-122 174.74,-122 174.74,-86 317.26,-86 317.26,-122"/>
<text text-anchor="middle" x="246" y="-99.8" font-family="Times,serif" font-size="14.00">SearchBoxComponent</text>
</g>
<!-- SearchBoxComponent&#45;&gt;SharedModule -->
<g id="edge4" class="edge">
<title>SearchBoxComponent&#45;&gt;SharedModule</title>
<path fill="none" stroke="black" d="M268.96,-122.01C268.96,-138.05 268.96,-159 268.96,-159 268.96,-159 347.55,-159 347.55,-159"/>
<polygon fill="black" stroke="black" points="347.55,-162.5 357.55,-159 347.55,-155.5 347.55,-162.5"/>
</g>
<!-- SidebarComponent -->
<g id="node5" class="node">
<title>SidebarComponent</title>
<polygon fill="#ffffb3" stroke="black" points="157.1,-122 32.9,-122 32.9,-86 157.1,-86 157.1,-122"/>
<text text-anchor="middle" x="95" y="-99.8" font-family="Times,serif" font-size="14.00">SidebarComponent</text>
</g>
<!-- SidebarComponent&#45;&gt;SharedModule -->
<g id="edge5" class="edge">
<title>SidebarComponent&#45;&gt;SharedModule</title>
<path fill="none" stroke="black" d="M112.18,-122.27C112.18,-140.56 112.18,-166 112.18,-166 112.18,-166 347.65,-166 347.65,-166"/>
<polygon fill="black" stroke="black" points="347.65,-169.5 357.65,-166 347.65,-162.5 347.65,-169.5"/>
</g>
<!-- AboutPageComponent  -->
<g id="node7" class="node">
<title>AboutPageComponent </title>
<polygon fill="#fb8072" stroke="black" points="818.54,-252 671.46,-252 671.46,-216 818.54,-216 818.54,-252"/>
<text text-anchor="middle" x="745" y="-229.8" font-family="Times,serif" font-size="14.00">AboutPageComponent </text>
</g>
<!-- SharedModule&#45;&gt;AboutPageComponent  -->
<g id="edge6" class="edge">
<title>SharedModule&#45;&gt;AboutPageComponent </title>
<path fill="none" stroke="black" stroke-dasharray="5,2" d="M456.21,-173C543.79,-173 717.58,-173 717.58,-173 717.58,-173 717.58,-205.7 717.58,-205.7"/>
<polygon fill="black" stroke="black" points="714.08,-205.7 717.58,-215.7 721.08,-205.7 714.08,-205.7"/>
</g>
<!-- ContactPageComponent  -->
<g id="node8" class="node">
<title>ContactPageComponent </title>
<polygon fill="#fb8072" stroke="black" points="653.59,-252 498.41,-252 498.41,-216 653.59,-216 653.59,-252"/>
<text text-anchor="middle" x="576" y="-229.8" font-family="Times,serif" font-size="14.00">ContactPageComponent </text>
</g>
<!-- SharedModule&#45;&gt;ContactPageComponent  -->
<g id="edge7" class="edge">
<title>SharedModule&#45;&gt;ContactPageComponent </title>
<path fill="none" stroke="black" stroke-dasharray="5,2" d="M456.37,-180C497.07,-180 548.15,-180 548.15,-180 548.15,-180 548.15,-205.72 548.15,-205.72"/>
<polygon fill="black" stroke="black" points="544.65,-205.72 548.15,-215.72 551.65,-205.72 544.65,-205.72"/>
</g>
<!-- HomePageComponent  -->
<g id="node9" class="node">
<title>HomePageComponent </title>
<polygon fill="#fb8072" stroke="black" points="480.26,-252 333.74,-252 333.74,-216 480.26,-216 480.26,-252"/>
<text text-anchor="middle" x="407" y="-229.8" font-family="Times,serif" font-size="14.00">HomePageComponent </text>
</g>
<!-- SharedModule&#45;&gt;HomePageComponent  -->
<g id="edge8" class="edge">
<title>SharedModule&#45;&gt;HomePageComponent </title>
<path fill="none" stroke="black" stroke-dasharray="5,2" d="M407,-187.11C407,-187.11 407,-205.99 407,-205.99"/>
<polygon fill="black" stroke="black" points="403.5,-205.99 407,-215.99 410.5,-205.99 403.5,-205.99"/>
</g>
<!-- SearchBoxComponent  -->
<g id="node10" class="node">
<title>SearchBoxComponent </title>
<polygon fill="#fb8072" stroke="black" points="316.26,-252 169.74,-252 169.74,-216 316.26,-216 316.26,-252"/>
<text text-anchor="middle" x="243" y="-229.8" font-family="Times,serif" font-size="14.00">SearchBoxComponent </text>
</g>
<!-- SharedModule&#45;&gt;SearchBoxComponent  -->
<g id="edge9" class="edge">
<title>SharedModule&#45;&gt;SearchBoxComponent </title>
<path fill="none" stroke="black" stroke-dasharray="5,2" d="M357.37,-180C302.51,-180 221.79,-180 221.79,-180 221.79,-180 221.79,-205.72 221.79,-205.72"/>
<polygon fill="black" stroke="black" points="218.29,-205.72 221.79,-215.72 225.29,-205.72 218.29,-205.72"/>
</g>
<!-- SidebarComponent  -->
<g id="node11" class="node">
<title>SidebarComponent </title>
<polygon fill="#fb8072" stroke="black" points="151.6,-252 24.4,-252 24.4,-216 151.6,-216 151.6,-252"/>
<text text-anchor="middle" x="88" y="-229.8" font-family="Times,serif" font-size="14.00">SidebarComponent </text>
</g>
<!-- SharedModule&#45;&gt;SidebarComponent  -->
<g id="edge10" class="edge">
<title>SharedModule&#45;&gt;SidebarComponent </title>
<path fill="none" stroke="black" stroke-dasharray="5,2" d="M357.65,-173C264.63,-173 72.57,-173 72.57,-173 72.57,-173 72.57,-205.7 72.57,-205.7"/>
<polygon fill="black" stroke="black" points="69.07,-205.7 72.57,-215.7 76.07,-205.7 69.07,-205.7"/>
</g>
</g>
</svg>
