<?xml version="1.0" encoding="UTF-8" standalone="no"?>
<!DOCTYPE svg PUBLIC "-//W3C//DTD SVG 1.1//EN"
 "http://www.w3.org/Graphics/SVG/1.1/DTD/svg11.dtd">
<!-- Generated by graphviz version 2.47.0 (20210316.0004)
 -->
<!-- Title: dependencies Pages: 1 -->
<svg width="1066pt" height="211pt"
 viewBox="0.00 0.00 1066.00 211.00" xmlns="http://www.w3.org/2000/svg" xmlns:xlink="http://www.w3.org/1999/xlink">
<g id="graph0" class="graph" transform="scale(1 1) rotate(0) translate(4 207)">
<title>dependencies</title>
<polygon fill="white" stroke="transparent" points="-4,4 -4,-207 1062,-207 1062,4 -4,4"/>
<text text-anchor="start" x="508.01" y="-42.4" font-family="Times-12" font-weight="bold" font-size="14.00">Legend</text>
<polygon fill="#ffffb3" stroke="transparent" points="295,-10 295,-30 315,-30 315,-10 295,-10"/>
<text text-anchor="start" x="318.63" y="-15.4" font-family="Times-12" font-size="14.00"> &#160;Declarations</text>
<polygon fill="#8dd3c7" stroke="transparent" points="408,-10 408,-30 428,-30 428,-10 408,-10"/>
<text text-anchor="start" x="431.73" y="-15.4" font-family="Times-12" font-size="14.00"> &#160;Module</text>
<polygon fill="#80b1d3" stroke="transparent" points="494,-10 494,-30 514,-30 514,-10 494,-10"/>
<text text-anchor="start" x="517.78" y="-15.4" font-family="Times-12" font-size="14.00"> &#160;Bootstrap</text>
<polygon fill="#fdb462" stroke="transparent" points="591,-10 591,-30 611,-30 611,-10 591,-10"/>
<text text-anchor="start" x="614.67" y="-15.4" font-family="Times-12" font-size="14.00"> &#160;Providers</text>
<polygon fill="#fb8072" stroke="transparent" points="687,-10 687,-30 707,-30 707,-10 687,-10"/>
<text text-anchor="start" x="710.73" y="-15.4" font-family="Times-12" font-size="14.00"> &#160;Exports</text>
<g id="clust1" class="cluster">
<title>cluster_CountriesModule</title>
<polygon fill="none" stroke="black" stroke-dasharray="1,5" points="8,-70 8,-195 1050,-195 1050,-70 8,-70"/>
</g>
<g id="clust2" class="cluster">
<title>cluster_CountriesModule_declarations</title>
<polygon fill="none" stroke="black" points="316,-78 316,-130 1042,-130 1042,-78 316,-78"/>
</g>
<g id="clust7" class="cluster">
<title>cluster_CountriesModule_imports</title>
<polygon fill="none" stroke="black" points="16,-78 16,-130 308,-130 308,-78 16,-78"/>
</g>
<!-- ByCapitalPageComponent -->
<g id="node1" class="node">
<title>ByCapitalPageComponent</title>
<polygon fill="#ffffb3" stroke="black" points="1033.82,-122 868.18,-122 868.18,-86 1033.82,-86 1033.82,-122"/>
<text text-anchor="middle" x="951" y="-99.8" font-family="Times,serif" font-size="14.00">ByCapitalPageComponent</text>
</g>
<!-- CountriesModule -->
<g id="node5" class="node">
<title>CountriesModule</title>
<polygon fill="#8dd3c7" stroke="black" points="546.99,-187 543.99,-191 522.99,-191 519.99,-187 433.01,-187 433.01,-151 546.99,-151 546.99,-187"/>
<text text-anchor="middle" x="490" y="-164.8" font-family="Times,serif" font-size="14.00">CountriesModule</text>
</g>
<!-- ByCapitalPageComponent&#45;&gt;CountriesModule -->
<g id="edge1" class="edge">
<title>ByCapitalPageComponent&#45;&gt;CountriesModule</title>
<path fill="none" stroke="black" d="M951,-122.28C951,-143.32 951,-175 951,-175 951,-175 556.99,-175 556.99,-175"/>
<polygon fill="black" stroke="black" points="556.99,-171.5 546.99,-175 556.99,-178.5 556.99,-171.5"/>
</g>
<!-- ByCountryPageComponent -->
<g id="node2" class="node">
<title>ByCountryPageComponent</title>
<polygon fill="#ffffb3" stroke="black" points="850.27,-122 679.73,-122 679.73,-86 850.27,-86 850.27,-122"/>
<text text-anchor="middle" x="765" y="-99.8" font-family="Times,serif" font-size="14.00">ByCountryPageComponent</text>
</g>
<!-- ByCountryPageComponent&#45;&gt;CountriesModule -->
<g id="edge2" class="edge">
<title>ByCountryPageComponent&#45;&gt;CountriesModule</title>
<path fill="none" stroke="black" d="M765,-122.02C765,-139.37 765,-163 765,-163 765,-163 557.31,-163 557.31,-163"/>
<polygon fill="black" stroke="black" points="557.31,-159.5 547.31,-163 557.31,-166.5 557.31,-159.5"/>
</g>
<!-- ByRegionPageComponent -->
<g id="node3" class="node">
<title>ByRegionPageComponent</title>
<polygon fill="#ffffb3" stroke="black" points="661.82,-122 496.18,-122 496.18,-86 661.82,-86 661.82,-122"/>
<text text-anchor="middle" x="579" y="-99.8" font-family="Times,serif" font-size="14.00">ByRegionPageComponent</text>
</g>
<!-- ByRegionPageComponent&#45;&gt;CountriesModule -->
<g id="edge3" class="edge">
<title>ByRegionPageComponent&#45;&gt;CountriesModule</title>
<path fill="none" stroke="black" d="M521.67,-122.11C521.67,-122.11 521.67,-140.99 521.67,-140.99"/>
<polygon fill="black" stroke="black" points="518.17,-140.99 521.67,-150.99 525.17,-140.99 518.17,-140.99"/>
</g>
<!-- CountryPageComponent -->
<g id="node4" class="node">
<title>CountryPageComponent</title>
<polygon fill="#ffffb3" stroke="black" points="478.43,-122 323.57,-122 323.57,-86 478.43,-86 478.43,-122"/>
<text text-anchor="middle" x="401" y="-99.8" font-family="Times,serif" font-size="14.00">CountryPageComponent</text>
</g>
<!-- CountryPageComponent&#45;&gt;CountriesModule -->
<g id="edge4" class="edge">
<title>CountryPageComponent&#45;&gt;CountriesModule</title>
<path fill="none" stroke="black" d="M455.61,-122.11C455.61,-122.11 455.61,-140.99 455.61,-140.99"/>
<polygon fill="black" stroke="black" points="452.11,-140.99 455.61,-150.99 459.11,-140.99 452.11,-140.99"/>
</g>
<!-- CountriesRoutingModule -->
<g id="node6" class="node">
<title>CountriesRoutingModule</title>
<polygon fill="#8dd3c7" stroke="black" points="299.61,-122 296.61,-126 275.61,-126 272.61,-122 140.39,-122 140.39,-86 299.61,-86 299.61,-122"/>
<text text-anchor="middle" x="220" y="-99.8" font-family="Times,serif" font-size="14.00">CountriesRoutingModule</text>
</g>
<!-- CountriesRoutingModule&#45;&gt;CountriesModule -->
<g id="edge5" class="edge">
<title>CountriesRoutingModule&#45;&gt;CountriesModule</title>
<path fill="none" stroke="black" d="M220,-122.02C220,-139.37 220,-163 220,-163 220,-163 422.74,-163 422.74,-163"/>
<polygon fill="black" stroke="black" points="422.74,-166.5 432.74,-163 422.74,-159.5 422.74,-166.5"/>
</g>
<!-- SharedModule -->
<g id="node7" class="node">
<title>SharedModule</title>
<polygon fill="#8dd3c7" stroke="black" points="122.42,-122 119.42,-126 98.42,-126 95.42,-122 23.58,-122 23.58,-86 122.42,-86 122.42,-122"/>
<text text-anchor="middle" x="73" y="-99.8" font-family="Times,serif" font-size="14.00">SharedModule</text>
</g>
<!-- SharedModule&#45;&gt;CountriesModule -->
<g id="edge6" class="edge">
<title>SharedModule&#45;&gt;CountriesModule</title>
<path fill="none" stroke="black" d="M73,-122.28C73,-143.32 73,-175 73,-175 73,-175 422.89,-175 422.89,-175"/>
<polygon fill="black" stroke="black" points="422.89,-178.5 432.89,-175 422.89,-171.5 422.89,-178.5"/>
</g>
</g>
</svg>
