<?xml version="1.0" encoding="UTF-8" standalone="no"?>
<!DOCTYPE svg PUBLIC "-//W3C//DTD SVG 1.1//EN"
 "http://www.w3.org/Graphics/SVG/1.1/DTD/svg11.dtd">
<!-- Generated by graphviz version 2.47.0 (20210316.0004)
 -->
<!-- Title: dependencies Pages: 1 -->
<svg width="1244pt" height="211pt"
 viewBox="0.00 0.00 1244.00 211.00" xmlns="http://www.w3.org/2000/svg" xmlns:xlink="http://www.w3.org/1999/xlink">
<g id="graph0" class="graph" transform="scale(1 1) rotate(0) translate(4 207)">
<title>dependencies</title>
<polygon fill="white" stroke="transparent" points="-4,4 -4,-207 1240,-207 1240,4 -4,4"/>
<text text-anchor="start" x="597.01" y="-42.4" font-family="Times-12" font-weight="bold" font-size="14.00">Legend</text>
<polygon fill="#ffffb3" stroke="transparent" points="384,-10 384,-30 404,-30 404,-10 384,-10"/>
<text text-anchor="start" x="407.63" y="-15.4" font-family="Times-12" font-size="14.00"> &#160;Declarations</text>
<polygon fill="#8dd3c7" stroke="transparent" points="497,-10 497,-30 517,-30 517,-10 497,-10"/>
<text text-anchor="start" x="520.73" y="-15.4" font-family="Times-12" font-size="14.00"> &#160;Module</text>
<polygon fill="#80b1d3" stroke="transparent" points="583,-10 583,-30 603,-30 603,-10 583,-10"/>
<text text-anchor="start" x="606.78" y="-15.4" font-family="Times-12" font-size="14.00"> &#160;Bootstrap</text>
<polygon fill="#fdb462" stroke="transparent" points="680,-10 680,-30 700,-30 700,-10 680,-10"/>
<text text-anchor="start" x="703.67" y="-15.4" font-family="Times-12" font-size="14.00"> &#160;Providers</text>
<polygon fill="#fb8072" stroke="transparent" points="776,-10 776,-30 796,-30 796,-10 776,-10"/>
<text text-anchor="start" x="799.73" y="-15.4" font-family="Times-12" font-size="14.00"> &#160;Exports</text>
<g id="clust1" class="cluster">
<title>cluster_CountriesModule</title>
<polygon fill="none" stroke="black" stroke-dasharray="1,5" points="8,-70 8,-195 1228,-195 1228,-70 8,-70"/>
</g>
<g id="clust8" class="cluster">
<title>cluster_CountriesModule_imports</title>
<polygon fill="none" stroke="black" points="928,-78 928,-130 1220,-130 1220,-78 928,-78"/>
</g>
<g id="clust2" class="cluster">
<title>cluster_CountriesModule_declarations</title>
<polygon fill="none" stroke="black" points="16,-78 16,-130 920,-130 920,-78 16,-78"/>
</g>
<!-- ByCapitalPageComponent -->
<g id="node1" class="node">
<title>ByCapitalPageComponent</title>
<polygon fill="#ffffb3" stroke="black" points="911.82,-122 746.18,-122 746.18,-86 911.82,-86 911.82,-122"/>
<text text-anchor="middle" x="829" y="-99.8" font-family="Times,serif" font-size="14.00">ByCapitalPageComponent</text>
</g>
<!-- CountriesModule -->
<g id="node6" class="node">
<title>CountriesModule</title>
<polygon fill="#8dd3c7" stroke="black" points="699.99,-187 696.99,-191 675.99,-191 672.99,-187 586.01,-187 586.01,-151 699.99,-151 699.99,-187"/>
<text text-anchor="middle" x="643" y="-164.8" font-family="Times,serif" font-size="14.00">CountriesModule</text>
</g>
<!-- ByCapitalPageComponent&#45;&gt;CountriesModule -->
<g id="edge1" class="edge">
<title>ByCapitalPageComponent&#45;&gt;CountriesModule</title>
<path fill="none" stroke="black" d="M829,-122.03C829,-138.4 829,-160 829,-160 829,-160 710.07,-160 710.07,-160"/>
<polygon fill="black" stroke="black" points="710.07,-156.5 700.07,-160 710.07,-163.5 710.07,-156.5"/>
</g>
<!-- ByCountryPageComponent -->
<g id="node2" class="node">
<title>ByCountryPageComponent</title>
<polygon fill="#ffffb3" stroke="black" points="728.27,-122 557.73,-122 557.73,-86 728.27,-86 728.27,-122"/>
<text text-anchor="middle" x="643" y="-99.8" font-family="Times,serif" font-size="14.00">ByCountryPageComponent</text>
</g>
<!-- ByCountryPageComponent&#45;&gt;CountriesModule -->
<g id="edge2" class="edge">
<title>ByCountryPageComponent&#45;&gt;CountriesModule</title>
<path fill="none" stroke="black" d="M643,-122.11C643,-122.11 643,-140.99 643,-140.99"/>
<polygon fill="black" stroke="black" points="639.5,-140.99 643,-150.99 646.5,-140.99 639.5,-140.99"/>
</g>
<!-- ByRegionPageComponent -->
<g id="node3" class="node">
<title>ByRegionPageComponent</title>
<polygon fill="#ffffb3" stroke="black" points="539.82,-122 374.18,-122 374.18,-86 539.82,-86 539.82,-122"/>
<text text-anchor="middle" x="457" y="-99.8" font-family="Times,serif" font-size="14.00">ByRegionPageComponent</text>
</g>
<!-- ByRegionPageComponent&#45;&gt;CountriesModule -->
<g id="edge3" class="edge">
<title>ByRegionPageComponent&#45;&gt;CountriesModule</title>
<path fill="none" stroke="black" d="M457,-122.03C457,-138.4 457,-160 457,-160 457,-160 575.93,-160 575.93,-160"/>
<polygon fill="black" stroke="black" points="575.93,-163.5 585.93,-160 575.93,-156.5 575.93,-163.5"/>
</g>
<!-- CountryPageComponent -->
<g id="node4" class="node">
<title>CountryPageComponent</title>
<polygon fill="#ffffb3" stroke="black" points="356.43,-122 201.57,-122 201.57,-86 356.43,-86 356.43,-122"/>
<text text-anchor="middle" x="279" y="-99.8" font-family="Times,serif" font-size="14.00">CountryPageComponent</text>
</g>
<!-- CountryPageComponent&#45;&gt;CountriesModule -->
<g id="edge4" class="edge">
<title>CountryPageComponent&#45;&gt;CountriesModule</title>
<path fill="none" stroke="black" d="M279,-122.11C279,-141.34 279,-169 279,-169 279,-169 575.72,-169 575.72,-169"/>
<polygon fill="black" stroke="black" points="575.72,-172.5 585.72,-169 575.72,-165.5 575.72,-172.5"/>
</g>
<!-- CountryTableComponent -->
<g id="node5" class="node">
<title>CountryTableComponent</title>
<polygon fill="#ffffb3" stroke="black" points="183.59,-122 24.41,-122 24.41,-86 183.59,-86 183.59,-122"/>
<text text-anchor="middle" x="104" y="-99.8" font-family="Times,serif" font-size="14.00">CountryTableComponent</text>
</g>
<!-- CountryTableComponent&#45;&gt;CountriesModule -->
<g id="edge5" class="edge">
<title>CountryTableComponent&#45;&gt;CountriesModule</title>
<path fill="none" stroke="black" d="M104,-122.29C104,-144.21 104,-178 104,-178 104,-178 575.83,-178 575.83,-178"/>
<polygon fill="black" stroke="black" points="575.83,-181.5 585.83,-178 575.83,-174.5 575.83,-181.5"/>
</g>
<!-- CountriesRoutingModule -->
<g id="node7" class="node">
<title>CountriesRoutingModule</title>
<polygon fill="#8dd3c7" stroke="black" points="1211.61,-122 1208.61,-126 1187.61,-126 1184.61,-122 1052.39,-122 1052.39,-86 1211.61,-86 1211.61,-122"/>
<text text-anchor="middle" x="1132" y="-99.8" font-family="Times,serif" font-size="14.00">CountriesRoutingModule</text>
</g>
<!-- CountriesRoutingModule&#45;&gt;CountriesModule -->
<g id="edge6" class="edge">
<title>CountriesRoutingModule&#45;&gt;CountriesModule</title>
<path fill="none" stroke="black" d="M1132,-122.29C1132,-144.21 1132,-178 1132,-178 1132,-178 710.05,-178 710.05,-178"/>
<polygon fill="black" stroke="black" points="710.05,-174.5 700.05,-178 710.05,-181.5 710.05,-174.5"/>
</g>
<!-- SharedModule -->
<g id="node8" class="node">
<title>SharedModule</title>
<polygon fill="#8dd3c7" stroke="black" points="1034.42,-122 1031.42,-126 1010.42,-126 1007.42,-122 935.58,-122 935.58,-86 1034.42,-86 1034.42,-122"/>
<text text-anchor="middle" x="985" y="-99.8" font-family="Times,serif" font-size="14.00">SharedModule</text>
</g>
<!-- SharedModule&#45;&gt;CountriesModule -->
<g id="edge7" class="edge">
<title>SharedModule&#45;&gt;CountriesModule</title>
<path fill="none" stroke="black" d="M985,-122.11C985,-141.34 985,-169 985,-169 985,-169 710.24,-169 710.24,-169"/>
<polygon fill="black" stroke="black" points="710.24,-165.5 700.24,-169 710.24,-172.5 710.24,-165.5"/>
</g>
</g>
</svg>
