<?xml version="1.0" encoding="UTF-8" standalone="no"?>
<!DOCTYPE svg PUBLIC "-//W3C//DTD SVG 1.1//EN"
 "http://www.w3.org/Graphics/SVG/1.1/DTD/svg11.dtd">
<!-- Generated by graphviz version 2.47.0 (20210316.0004)
 -->
<!-- Title: dependencies Pages: 1 -->
<svg width="3001pt" height="290pt"
 viewBox="0.00 0.00 3001.00 290.00" xmlns="http://www.w3.org/2000/svg" xmlns:xlink="http://www.w3.org/1999/xlink">
<g id="graph0" class="graph" transform="scale(1 1) rotate(0) translate(4 286)">
<title>dependencies</title>
<polygon fill="white" stroke="transparent" points="-4,4 -4,-286 2997,-286 2997,4 -4,4"/>
<text text-anchor="start" x="1475.51" y="-42.4" font-family="Times-12" font-weight="bold" font-size="14.00">Legend</text>
<polygon fill="#ffffb3" stroke="transparent" points="1262.5,-10 1262.5,-30 1282.5,-30 1282.5,-10 1262.5,-10"/>
<text text-anchor="start" x="1286.13" y="-15.4" font-family="Times-12" font-size="14.00"> &#160;Declarations</text>
<polygon fill="#8dd3c7" stroke="transparent" points="1375.5,-10 1375.5,-30 1395.5,-30 1395.5,-10 1375.5,-10"/>
<text text-anchor="start" x="1399.23" y="-15.4" font-family="Times-12" font-size="14.00"> &#160;Module</text>
<polygon fill="#80b1d3" stroke="transparent" points="1461.5,-10 1461.5,-30 1481.5,-30 1481.5,-10 1461.5,-10"/>
<text text-anchor="start" x="1485.28" y="-15.4" font-family="Times-12" font-size="14.00"> &#160;Bootstrap</text>
<polygon fill="#fdb462" stroke="transparent" points="1558.5,-10 1558.5,-30 1578.5,-30 1578.5,-10 1558.5,-10"/>
<text text-anchor="start" x="1582.17" y="-15.4" font-family="Times-12" font-size="14.00"> &#160;Providers</text>
<polygon fill="#fb8072" stroke="transparent" points="1654.5,-10 1654.5,-30 1674.5,-30 1674.5,-10 1654.5,-10"/>
<text text-anchor="start" x="1678.23" y="-15.4" font-family="Times-12" font-size="14.00"> &#160;Exports</text>
<g id="clust1" class="cluster">
<title>cluster_AppModule</title>
<polygon fill="none" stroke="black" stroke-dasharray="1,5" points="8,-70 8,-274 415,-274 415,-70 8,-70"/>
</g>
<g id="clust2" class="cluster">
<title>cluster_AppModule_declarations</title>
<polygon fill="none" stroke="black" points="16,-78 16,-130 138,-130 138,-78 16,-78"/>
</g>
<g id="clust4" class="cluster">
<title>cluster_AppModule_imports</title>
<polygon fill="none" stroke="black" points="146,-78 146,-130 407,-130 407,-78 146,-78"/>
</g>
<g id="clust6" class="cluster">
<title>cluster_AppModule_bootstrap</title>
<polygon fill="none" stroke="black" points="156,-214 156,-266 280,-266 280,-214 156,-214"/>
</g>
<g id="clust14" class="cluster">
<title>cluster_CountriesModule</title>
<polygon fill="none" stroke="black" stroke-dasharray="1,5" points="2059,-70 2059,-198 2985,-198 2985,-70 2059,-70"/>
</g>
<g id="clust15" class="cluster">
<title>cluster_CountriesModule_declarations</title>
<polygon fill="none" stroke="black" points="2251,-78 2251,-130 2977,-130 2977,-78 2251,-78"/>
</g>
<g id="clust20" class="cluster">
<title>cluster_CountriesModule_imports</title>
<polygon fill="none" stroke="black" points="2067,-78 2067,-130 2243,-130 2243,-78 2067,-78"/>
</g>
<g id="clust30" class="cluster">
<title>cluster_SharedModule</title>
<polygon fill="none" stroke="black" stroke-dasharray="1,5" points="423,-138 423,-206 2051,-206 2051,-138 423,-138"/>
</g>
<g id="clust31" class="cluster">
<title>cluster_SharedModule_declarations</title>
<polygon fill="none" stroke="black" points="1250,-146 1250,-198 2043,-198 2043,-146 1250,-146"/>
</g>
<g id="clust38" class="cluster">
<title>cluster_SharedModule_exports</title>
<polygon fill="none" stroke="black" points="431,-146 431,-198 1242,-198 1242,-146 431,-146"/>
</g>
<!-- AppComponent -->
<g id="node1" class="node">
<title>AppComponent</title>
<polygon fill="#ffffb3" stroke="black" points="129.94,-122 24.06,-122 24.06,-86 129.94,-86 129.94,-122"/>
<text text-anchor="middle" x="77" y="-99.8" font-family="Times,serif" font-size="14.00">AppComponent</text>
</g>
<!-- AppModule -->
<g id="node2" class="node">
<title>AppModule</title>
<polygon fill="#8dd3c7" stroke="black" points="259.66,-190 256.66,-194 235.66,-194 232.66,-190 176.34,-190 176.34,-154 259.66,-154 259.66,-190"/>
<text text-anchor="middle" x="218" y="-167.8" font-family="Times,serif" font-size="14.00">AppModule</text>
</g>
<!-- AppComponent&#45;&gt;AppModule -->
<g id="edge1" class="edge">
<title>AppComponent&#45;&gt;AppModule</title>
<path fill="none" stroke="black" d="M77,-122.22C77,-142.37 77,-172 77,-172 77,-172 166.08,-172 166.08,-172"/>
<polygon fill="black" stroke="black" points="166.08,-175.5 176.08,-172 166.08,-168.5 166.08,-175.5"/>
</g>
<!-- AppComponent  -->
<g id="node5" class="node">
<title>AppComponent </title>
<polygon fill="#80b1d3" stroke="black" points="272.44,-258 163.56,-258 163.56,-222 272.44,-222 272.44,-258"/>
<text text-anchor="middle" x="218" y="-235.8" font-family="Times,serif" font-size="14.00">AppComponent </text>
</g>
<!-- AppModule&#45;&gt;AppComponent  -->
<g id="edge4" class="edge">
<title>AppModule&#45;&gt;AppComponent </title>
<path fill="none" stroke="black" stroke-dasharray="1,5" d="M218,-190.22C218,-190.22 218,-211.73 218,-211.73"/>
<polygon fill="black" stroke="black" points="214.5,-211.73 218,-221.73 221.5,-211.73 214.5,-211.73"/>
</g>
<!-- AppRoutingModule -->
<g id="node3" class="node">
<title>AppRoutingModule</title>
<polygon fill="#8dd3c7" stroke="black" points="282.27,-122 279.27,-126 258.27,-126 255.27,-122 153.73,-122 153.73,-86 282.27,-86 282.27,-122"/>
<text text-anchor="middle" x="218" y="-99.8" font-family="Times,serif" font-size="14.00">AppRoutingModule</text>
</g>
<!-- AppRoutingModule&#45;&gt;AppModule -->
<g id="edge2" class="edge">
<title>AppRoutingModule&#45;&gt;AppModule</title>
<path fill="none" stroke="black" d="M218,-122.22C218,-122.22 218,-143.73 218,-143.73"/>
<polygon fill="black" stroke="black" points="214.5,-143.73 218,-153.73 221.5,-143.73 214.5,-143.73"/>
</g>
<!-- SharedModule -->
<g id="node4" class="node">
<title>SharedModule</title>
<polygon fill="#8dd3c7" stroke="black" points="399.42,-122 396.42,-126 375.42,-126 372.42,-122 300.58,-122 300.58,-86 399.42,-86 399.42,-122"/>
<text text-anchor="middle" x="350" y="-99.8" font-family="Times,serif" font-size="14.00">SharedModule</text>
</g>
<!-- SharedModule&#45;&gt;AppModule -->
<g id="edge3" class="edge">
<title>SharedModule&#45;&gt;AppModule</title>
<path fill="none" stroke="black" d="M333.6,-122.29C333.6,-144.21 333.6,-178 333.6,-178 333.6,-178 269.73,-178 269.73,-178"/>
<polygon fill="black" stroke="black" points="269.73,-174.5 259.73,-178 269.73,-181.5 269.73,-174.5"/>
</g>
<!-- CountriesModule -->
<g id="node10" class="node">
<title>CountriesModule</title>
<polygon fill="#8dd3c7" stroke="black" points="2481.99,-190 2478.99,-194 2457.99,-194 2454.99,-190 2368.01,-190 2368.01,-154 2481.99,-154 2481.99,-190"/>
<text text-anchor="middle" x="2425" y="-167.8" font-family="Times,serif" font-size="14.00">CountriesModule</text>
</g>
<!-- SharedModule&#45;&gt;CountriesModule -->
<g id="edge10" class="edge">
<title>SharedModule&#45;&gt;CountriesModule</title>
<path fill="none" stroke="black" d="M399.65,-90C680.26,-90 2055.11,-90 2055.11,-90 2055.11,-90 2055.11,-178 2055.11,-178 2055.11,-178 2357.61,-178 2357.61,-178"/>
<polygon fill="black" stroke="black" points="2357.61,-181.5 2367.61,-178 2357.61,-174.5 2357.61,-181.5"/>
</g>
<!-- AboutPageComponent  -->
<g id="node17" class="node">
<title>AboutPageComponent </title>
<polygon fill="#fb8072" stroke="black" points="1233.54,-190 1086.46,-190 1086.46,-154 1233.54,-154 1233.54,-190"/>
<text text-anchor="middle" x="1160" y="-167.8" font-family="Times,serif" font-size="14.00">AboutPageComponent </text>
</g>
<!-- SharedModule&#45;&gt;AboutPageComponent  -->
<g id="edge16" class="edge">
<title>SharedModule&#45;&gt;AboutPageComponent </title>
<path fill="none" stroke="black" stroke-dasharray="5,2" d="M399.45,-109C575.31,-109 1160,-109 1160,-109 1160,-109 1160,-143.78 1160,-143.78"/>
<polygon fill="black" stroke="black" points="1156.5,-143.78 1160,-153.78 1163.5,-143.78 1156.5,-143.78"/>
</g>
<!-- ContactPageComponent  -->
<g id="node18" class="node">
<title>ContactPageComponent </title>
<polygon fill="#fb8072" stroke="black" points="1068.59,-190 913.41,-190 913.41,-154 1068.59,-154 1068.59,-190"/>
<text text-anchor="middle" x="991" y="-167.8" font-family="Times,serif" font-size="14.00">ContactPageComponent </text>
</g>
<!-- SharedModule&#45;&gt;ContactPageComponent  -->
<g id="edge17" class="edge">
<title>SharedModule&#45;&gt;ContactPageComponent </title>
<path fill="none" stroke="black" stroke-dasharray="5,2" d="M399.23,-113C549.33,-113 991,-113 991,-113 991,-113 991,-143.98 991,-143.98"/>
<polygon fill="black" stroke="black" points="987.5,-143.98 991,-153.98 994.5,-143.98 987.5,-143.98"/>
</g>
<!-- HomePageComponent  -->
<g id="node19" class="node">
<title>HomePageComponent </title>
<polygon fill="#fb8072" stroke="black" points="895.26,-190 748.74,-190 748.74,-154 895.26,-154 895.26,-190"/>
<text text-anchor="middle" x="822" y="-167.8" font-family="Times,serif" font-size="14.00">HomePageComponent </text>
</g>
<!-- SharedModule&#45;&gt;HomePageComponent  -->
<g id="edge18" class="edge">
<title>SharedModule&#45;&gt;HomePageComponent </title>
<path fill="none" stroke="black" stroke-dasharray="5,2" d="M399.62,-116C520.8,-116 822,-116 822,-116 822,-116 822,-143.97 822,-143.97"/>
<polygon fill="black" stroke="black" points="818.5,-143.97 822,-153.97 825.5,-143.97 818.5,-143.97"/>
</g>
<!-- SearchBoxComponent  -->
<g id="node20" class="node">
<title>SearchBoxComponent </title>
<polygon fill="#fb8072" stroke="black" points="731.26,-190 584.74,-190 584.74,-154 731.26,-154 731.26,-190"/>
<text text-anchor="middle" x="658" y="-167.8" font-family="Times,serif" font-size="14.00">SearchBoxComponent </text>
</g>
<!-- SharedModule&#45;&gt;SearchBoxComponent  -->
<g id="edge19" class="edge">
<title>SharedModule&#45;&gt;SearchBoxComponent </title>
<path fill="none" stroke="black" stroke-dasharray="5,2" d="M399.49,-119C486.55,-119 658,-119 658,-119 658,-119 658,-143.76 658,-143.76"/>
<polygon fill="black" stroke="black" points="654.5,-143.76 658,-153.76 661.5,-143.76 654.5,-143.76"/>
</g>
<!-- SidebarComponent  -->
<g id="node21" class="node">
<title>SidebarComponent </title>
<polygon fill="#fb8072" stroke="black" points="566.6,-190 439.4,-190 439.4,-154 566.6,-154 566.6,-190"/>
<text text-anchor="middle" x="503" y="-167.8" font-family="Times,serif" font-size="14.00">SidebarComponent </text>
</g>
<!-- SharedModule&#45;&gt;SidebarComponent  -->
<g id="edge20" class="edge">
<title>SharedModule&#45;&gt;SidebarComponent </title>
<path fill="none" stroke="black" stroke-dasharray="5,2" d="M366.4,-122.27C366.4,-140.56 366.4,-166 366.4,-166 366.4,-166 429.1,-166 429.1,-166"/>
<polygon fill="black" stroke="black" points="429.1,-169.5 439.1,-166 429.1,-162.5 429.1,-169.5"/>
</g>
<!-- ByCapitalPageComponent -->
<g id="node6" class="node">
<title>ByCapitalPageComponent</title>
<polygon fill="#ffffb3" stroke="black" points="2968.82,-122 2803.18,-122 2803.18,-86 2968.82,-86 2968.82,-122"/>
<text text-anchor="middle" x="2886" y="-99.8" font-family="Times,serif" font-size="14.00">ByCapitalPageComponent</text>
</g>
<!-- ByCapitalPageComponent&#45;&gt;CountriesModule -->
<g id="edge5" class="edge">
<title>ByCapitalPageComponent&#45;&gt;CountriesModule</title>
<path fill="none" stroke="black" d="M2886,-122.29C2886,-144.21 2886,-178 2886,-178 2886,-178 2491.99,-178 2491.99,-178"/>
<polygon fill="black" stroke="black" points="2491.99,-174.5 2481.99,-178 2491.99,-181.5 2491.99,-174.5"/>
</g>
<!-- ByCountryPageComponent -->
<g id="node7" class="node">
<title>ByCountryPageComponent</title>
<polygon fill="#ffffb3" stroke="black" points="2785.27,-122 2614.73,-122 2614.73,-86 2785.27,-86 2785.27,-122"/>
<text text-anchor="middle" x="2700" y="-99.8" font-family="Times,serif" font-size="14.00">ByCountryPageComponent</text>
</g>
<!-- ByCountryPageComponent&#45;&gt;CountriesModule -->
<g id="edge6" class="edge">
<title>ByCountryPageComponent&#45;&gt;CountriesModule</title>
<path fill="none" stroke="black" d="M2700,-122.27C2700,-140.56 2700,-166 2700,-166 2700,-166 2492.31,-166 2492.31,-166"/>
<polygon fill="black" stroke="black" points="2492.31,-162.5 2482.31,-166 2492.31,-169.5 2492.31,-162.5"/>
</g>
<!-- ByRegionPageComponent -->
<g id="node8" class="node">
<title>ByRegionPageComponent</title>
<polygon fill="#ffffb3" stroke="black" points="2596.82,-122 2431.18,-122 2431.18,-86 2596.82,-86 2596.82,-122"/>
<text text-anchor="middle" x="2514" y="-99.8" font-family="Times,serif" font-size="14.00">ByRegionPageComponent</text>
</g>
<!-- ByRegionPageComponent&#45;&gt;CountriesModule -->
<g id="edge7" class="edge">
<title>ByRegionPageComponent&#45;&gt;CountriesModule</title>
<path fill="none" stroke="black" d="M2456.67,-122.22C2456.67,-122.22 2456.67,-143.73 2456.67,-143.73"/>
<polygon fill="black" stroke="black" points="2453.17,-143.73 2456.67,-153.73 2460.17,-143.73 2453.17,-143.73"/>
</g>
<!-- CountryPageComponent -->
<g id="node9" class="node">
<title>CountryPageComponent</title>
<polygon fill="#ffffb3" stroke="black" points="2413.43,-122 2258.57,-122 2258.57,-86 2413.43,-86 2413.43,-122"/>
<text text-anchor="middle" x="2336" y="-99.8" font-family="Times,serif" font-size="14.00">CountryPageComponent</text>
</g>
<!-- CountryPageComponent&#45;&gt;CountriesModule -->
<g id="edge8" class="edge">
<title>CountryPageComponent&#45;&gt;CountriesModule</title>
<path fill="none" stroke="black" d="M2390.61,-122.22C2390.61,-122.22 2390.61,-143.73 2390.61,-143.73"/>
<polygon fill="black" stroke="black" points="2387.11,-143.73 2390.61,-153.73 2394.11,-143.73 2387.11,-143.73"/>
</g>
<!-- CountriesRoutingModule -->
<g id="node11" class="node">
<title>CountriesRoutingModule</title>
<polygon fill="#8dd3c7" stroke="black" points="2234.61,-122 2231.61,-126 2210.61,-126 2207.61,-122 2075.39,-122 2075.39,-86 2234.61,-86 2234.61,-122"/>
<text text-anchor="middle" x="2155" y="-99.8" font-family="Times,serif" font-size="14.00">CountriesRoutingModule</text>
</g>
<!-- CountriesRoutingModule&#45;&gt;CountriesModule -->
<g id="edge9" class="edge">
<title>CountriesRoutingModule&#45;&gt;CountriesModule</title>
<path fill="none" stroke="black" d="M2155,-122.27C2155,-140.56 2155,-166 2155,-166 2155,-166 2357.74,-166 2357.74,-166"/>
<polygon fill="black" stroke="black" points="2357.74,-169.5 2367.74,-166 2357.74,-162.5 2357.74,-169.5"/>
</g>
<!-- AboutPageComponent -->
<g id="node12" class="node">
<title>AboutPageComponent</title>
<polygon fill="#ffffb3" stroke="black" points="2034.54,-190 1891.46,-190 1891.46,-154 2034.54,-154 2034.54,-190"/>
<text text-anchor="middle" x="1963" y="-167.8" font-family="Times,serif" font-size="14.00">AboutPageComponent</text>
</g>
<!-- AboutPageComponent&#45;&gt;SharedModule -->
<g id="edge11" class="edge">
<title>AboutPageComponent&#45;&gt;SharedModule</title>
<path fill="none" stroke="black" d="M1963,-153.68C1963,-130.34 1963,-93 1963,-93 1963,-93 409.6,-93 409.6,-93"/>
<polygon fill="black" stroke="black" points="409.6,-89.5 399.6,-93 409.6,-96.5 409.6,-89.5"/>
</g>
<!-- ContactPageComponent -->
<g id="node13" class="node">
<title>ContactPageComponent</title>
<polygon fill="#ffffb3" stroke="black" points="1873.09,-190 1720.91,-190 1720.91,-154 1873.09,-154 1873.09,-190"/>
<text text-anchor="middle" x="1797" y="-167.8" font-family="Times,serif" font-size="14.00">ContactPageComponent</text>
</g>
<!-- ContactPageComponent&#45;&gt;SharedModule -->
<g id="edge12" class="edge">
<title>ContactPageComponent&#45;&gt;SharedModule</title>
<path fill="none" stroke="black" d="M1797,-153.99C1797,-131.51 1797,-96 1797,-96 1797,-96 409.39,-96 409.39,-96"/>
<polygon fill="black" stroke="black" points="409.39,-92.5 399.39,-96 409.39,-99.5 409.39,-92.5"/>
</g>
<!-- HomePageComponent -->
<g id="node14" class="node">
<title>HomePageComponent</title>
<polygon fill="#ffffb3" stroke="black" points="1703.26,-190 1560.74,-190 1560.74,-154 1703.26,-154 1703.26,-190"/>
<text text-anchor="middle" x="1632" y="-167.8" font-family="Times,serif" font-size="14.00">HomePageComponent</text>
</g>
<!-- HomePageComponent&#45;&gt;SharedModule -->
<g id="edge13" class="edge">
<title>HomePageComponent&#45;&gt;SharedModule</title>
<path fill="none" stroke="black" d="M1632,-153.83C1632,-132.5 1632,-100 1632,-100 1632,-100 409.47,-100 409.47,-100"/>
<polygon fill="black" stroke="black" points="409.47,-96.5 399.47,-100 409.47,-103.5 409.47,-96.5"/>
</g>
<!-- SearchBoxComponent -->
<g id="node15" class="node">
<title>SearchBoxComponent</title>
<polygon fill="#ffffb3" stroke="black" points="1542.26,-190 1399.74,-190 1399.74,-154 1542.26,-154 1542.26,-190"/>
<text text-anchor="middle" x="1471" y="-167.8" font-family="Times,serif" font-size="14.00">SearchBoxComponent</text>
</g>
<!-- SearchBoxComponent&#45;&gt;SharedModule -->
<g id="edge14" class="edge">
<title>SearchBoxComponent&#45;&gt;SharedModule</title>
<path fill="none" stroke="black" d="M1471,-153.87C1471,-133.43 1471,-103 1471,-103 1471,-103 409.25,-103 409.25,-103"/>
<polygon fill="black" stroke="black" points="409.25,-99.5 399.25,-103 409.25,-106.5 409.25,-99.5"/>
</g>
<!-- SidebarComponent -->
<g id="node16" class="node">
<title>SidebarComponent</title>
<polygon fill="#ffffb3" stroke="black" points="1382.1,-190 1257.9,-190 1257.9,-154 1382.1,-154 1382.1,-190"/>
<text text-anchor="middle" x="1320" y="-167.8" font-family="Times,serif" font-size="14.00">SidebarComponent</text>
</g>
<!-- SidebarComponent&#45;&gt;SharedModule -->
<g id="edge15" class="edge">
<title>SidebarComponent&#45;&gt;SharedModule</title>
<path fill="none" stroke="black" d="M1320,-153.97C1320,-134.42 1320,-106 1320,-106 1320,-106 409.44,-106 409.44,-106"/>
<polygon fill="black" stroke="black" points="409.44,-102.5 399.44,-106 409.44,-109.5 409.44,-102.5"/>
</g>
</g>
</svg>
